<?xml version="1.0" encoding="UTF-8" standalone="no"?>
<svg
   id="Livello_1"
   data-name="Livello 1"
   viewBox="0 0 50 50"
   version="1.1"
   sodipodi:docname="icon.svg"
   inkscape:version="1.4.2 (ebf0e940d0, 2025-05-08)"
   xmlns:inkscape="http://www.inkscape.org/namespaces/inkscape"
   xmlns:sodipodi="http://sodipodi.sourceforge.net/DTD/sodipodi-0.dtd"
   xmlns="http://www.w3.org/2000/svg"
   xmlns:svg="http://www.w3.org/2000/svg">
  <sodipodi:namedview
     id="namedview8"
     pagecolor="#ffffff"
     bordercolor="#000000"
     borderopacity="0.25"
     inkscape:showpageshadow="2"
     inkscape:pageopacity="0.0"
     inkscape:pagecheckerboard="0"
     inkscape:deskcolor="#d1d1d1"
     inkscape:zoom="19.176736"
     inkscape:cx="24.952109"
     inkscape:cy="25.186768"
     inkscape:window-width="1876"
     inkscape:window-height="1002"
     inkscape:window-x="0"
     inkscape:window-y="0"
     inkscape:window-maximized="1"
     inkscape:current-layer="g8" />
  <defs
     id="defs1">
    <style
       id="style1">
      .cls-1 {
        fill: #ffb64a;
      }
    </style>
  </defs>
  <g
     id="g8"
     style="stroke:#e78a00;stroke-opacity:1;stroke-width:0.3;stroke-dasharray:none">
    <path
       class="cls-1"
       d="M33.1600127193,11.0916710325c-1.6006783698,2.6036143283-2.8973842876,5.8353312132-3.9915243484,9.1582522003-2.7353192353-.1924870308-4.9032562046-2.4820500808-4.9032562046-5.2680107804,0-2.9278062661,2.3705646595-5.2983709256,5.2983709256-5.2983709256,1.38791002,0,2.6542557926.5267577947,3.5964096273,1.4081295058Z"
       id="path1"
       style="stroke:#e78a00;stroke-opacity:1;stroke-width:0.3;stroke-dasharray:none" />
    <g
       id="g6"
       style="stroke:#e78a00;stroke-opacity:1;stroke-width:0.3;stroke-dasharray:none">
      <path
         class="cls-1"
         d="M34.8619740176,14.9819124524c0,2.9176656066-2.3705646595,5.2882302661-5.2983709256,5.2882302661-.131704907,0-.263409814,0-.395114721-.0202194857,1.0941400608-3.3229209871,2.3908459786-6.554637872,3.9915243484-9.1582522003,1.0434985965.9624351538,1.7019612983,2.3503451738,1.7019612983,3.8902414199Z"
         id="path2"
         style="stroke:#e78a00;stroke-opacity:1;stroke-width:0.3;stroke-dasharray:none" />
      <path
         class="cls-1"
         d="M47.7179187737,11.385502825c-1.2865652583,2.5326915451-2.8467428233,4.7614724714-4.6702683691,6.7065622647-.0101406595-.0101406595-.0101406595-.020281319-.020281319-.0304219785.3546139163-.3849740615.6888846803-.7800269492,1.0029359585-1.1650010108.2229090093-.263409814.4255366995-.526819628.6281643898-.790229442.1823463713-.2329878355.3444114235-.4558968448.506538309-.6787440208.4457561853-.5977424113.840809073-1.1954229893,1.2055636488-1.7526027625.2127065165-.3241919378.4051935472-.6483838755.5875399185-.9522944943.283691133-.4761781638.5369602875-.9320750086.7598074635-1.3372685558Z"
         id="path4"
         style="stroke:#e78a00;stroke-opacity:1;stroke-width:0.3;stroke-dasharray:none" />
      <path
         class="cls-1"
         d="M48.0319700519,8.2247087235c-.091142269-.0709227833-.1924870308-.1418455665-.2937699592-.2127683498-.1012829285-.0810634428-.2127683498-.151986226-.3343325973-.2329878355-.374833402-.2735504735-.8307302468-.5774610923-1.3372685558-.8915123705.6281025565.354552083,1.2866270915.8003082683,1.9653711123,1.3372685558Z"
         id="path5"
         style="stroke:#e78a00;stroke-opacity:1;stroke-width:0.3;stroke-dasharray:none" />
      <path
         class="cls-1"
         d="M48.9032629367,8.9237340632c-.0304219785.0506414642-.0507032975.1012829285-.0709227833.1620650522-.0607821237.131704907-.1215642475.263409814-.172267545.395114721-.0506414642.111423588-.1012829285.2127683498-.1417837332.3140512783-.0507032975.1012829285-.1013447618.2127683498-.1621268855.3241919378-.020281319.0506414642-.0506414642.111423588-.0709227833.1620650522-.111423588.243128495-.2329878355.4761781638-.354552083.7091659993-.0709227833.131704907-.131704907.263409814-.2127683498.395114721-.222847176.4051935472-.4761163305.861090392-.7598074635,1.3372685558-.1823463712.3039106188-.374833402.6281025565-.5875399185.9522944943-.3647545758.5571797733-.7598074635,1.1548603513-1.2055636488,1.7526027625-.1621268855.222847176-.3241919378.4457561853-.506538309.6787440208-.2026276903.263409814-.4052553805.526819628-.6281643898.790229442-.3140512783.3849740615-.6483220422.7800269492-1.0029359585,1.1650010108-.597680578-.9826546395-1.1852823298-1.6411791745-1.7526027625-2.0160125765-2.6137549878-1.7526027625-4.9641001617,2.3300638548-6.9395501002,8.2667398298-.2127683498.638243216-.4255366995,1.2865652583-.6281025565,1.9653711123l3.7584746796-.921934349,1.0232172775,3.4242039156.2880052943.9531908917.0622258756.1955670376-6.4503160551.991075101c-1.3777693605,5.3389335637-2.3388606563,10.543906014-3.1594502436,14.6164319719l-9.9787799543,1.7830247411,1.1954229893-6.2911662247c1.1346408655-.4660375043,2.3908459786-1.408191339,3.5457681631-3.2418575443.638243216-1.013076618,1.1533318407-2.9376235809,1.9333587899-5.956572116l-3.8276452293.5992777884.6572724131-3.4603459397,4.1951804376-1.0395754395c.1924870308-.7193066588.395114721-1.4588328033.5977424113-2.2186402668.48625699-1.7830247411,1.0232172775-3.6369722654,1.6208978555-5.4604978112.131704907.0202194857.263409814.0202194857.395114721.0202194857,2.9278062661,0,5.2983709256-2.3705646595,5.2983709256-5.2882302661,0-1.5398962461-.6584627017-2.9278062661-1.7019612983-3.8902414199,1.38791002-2.249000412,2.9885883898-4.0320251531,4.8728960594-4.9741789879,2.1578581431-1.0839994013,4.6702683691-1.0839994013,7.6386372732.5369602875.0100788262,0,.0202194857.0100788262.0303601452.0100788262.1215642475.0709227833.243128495.131704907.3646927425.2229090093.506538309.3140512783.9624351538.617961897,1.3372685558.8915123705.1215642475.0810016095.2330496688.1519243927.3343325973.2329878355.1012829285.0709227833.2026276903.1418455665.2937699592.2127683498.040562638.0303601452.0810634428.0607821238.1215642475.091142269.040562638.0304219785.0810634428.0607821237.1215642475.1013447618.0810634428.0607821237.151986226.111423588.2127683498.1620650522.1012829285.0810634428.1924870308.1621268855.2937699592.243128495.0304219785.0304219785.0709227833.0607821238.1013447618.0912041023.0101406595,0,.0101406595.0101406595.020281319.0101406595Z"
         id="path6"
         style="stroke:#e78a00;stroke-opacity:1;stroke-width:0.3;stroke-dasharray:none" />
      <polygon
         class="cls-1"
         points="38.4888056234 28.7800110433 37.4655883459 25.3558071277 37.4858696649 25.3456664682 38.4888056234 28.7800110433"
         id="polygon6"
         style="stroke:#e78a00;stroke-opacity:1;stroke-width:0.3;stroke-dasharray:none" />
    </g>
    <polygon
       class="cls-1"
       points="23.9410402285 19.4901157693 21.3272852407 23.9476157886 20.7498241484 24.9303322614 18.9060172836 28.0809857035 9.6364033286 26.3486024267 15.0968393065 22.9143196849 19.0377221906 20.432269604 22.5531302085 18.2136293372 23.9410402285 19.4901157693"
       id="polygon7"
       style="stroke:#e78a00;stroke-opacity:1;stroke-width:0.3;stroke-dasharray:none" />
    <polygon
       class="cls-1"
       points="22.6442724775 12.9253372378 22.2897203945 15.3162450497 17.5586699016 14.4855148029 12.6249298852 13.6142837514 1.0049707564 11.5678491963 10.4367115969 5.0841341076 16.5556721098 9.0148763322 18.7338115719 10.4129270118 22.6442724775 12.9253372378"
       id="polygon8"
       style="stroke:#e78a00;stroke-opacity:1;stroke-width:0.3;stroke-dasharray:none" />
  </g>
</svg>
