<?xml version="1.0" encoding="UTF-8" standalone="no"?>
<svg
   id="Livello_1"
   version="1.1"
   viewBox="0 0 992.82 283.46"
   sodipodi:docname="complete.svg"
   inkscape:version="1.4.2 (ebf0e940d0, 2025-05-08)"
   xmlns:inkscape="http://www.inkscape.org/namespaces/inkscape"
   xmlns:sodipodi="http://sodipodi.sourceforge.net/DTD/sodipodi-0.dtd"
   xmlns="http://www.w3.org/2000/svg"
   xmlns:svg="http://www.w3.org/2000/svg">
  <sodipodi:namedview
     id="namedview17"
     pagecolor="#ffffff"
     bordercolor="#000000"
     borderopacity="0.25"
     inkscape:showpageshadow="2"
     inkscape:pageopacity="0.0"
     inkscape:pagecheckerboard="0"
     inkscape:deskcolor="#d1d1d1"
     inkscape:zoom="0.96577102"
     inkscape:cx="495.97678"
     inkscape:cy="141.33785"
     inkscape:window-width="1920"
     inkscape:window-height="1080"
     inkscape:window-x="0"
     inkscape:window-y="0"
     inkscape:window-maximized="1"
     inkscape:current-layer="Livello_1" />
  <!-- Generator: Adobe Illustrator 29.0.0, SVG Export Plug-In . SVG Version: 2.1.0 Build 186)  -->
  <defs
     id="defs2">
    <style
       id="style1">
      .st0 {
        fill: none;
      }

      .st1 {
        fill: #d422ff;
      }

      .st2 {
        fill: #ffcd40;
        opacity: .85;
      }

      .st3 {
        clip-path: url(#clippath-1);
      }

      .st4 {
        fill: #f9be2d;
      }

      .st5 {
        fill: #fc3284;
      }

      .st6 {
        clip-path: url(#clippath);
      }
    </style>
    <clipPath
       id="clippath">
      <path
         class="st0"
         d="M301.96,41.45S239.17-13.95,160.94,7.27C82.71,28.48,55.07,108.4,55.07,108.4c0,0,69.97,53.45,142.46,33.8,72.49-19.66,104.44-100.75,104.44-100.75Z"
         id="path1" />
    </clipPath>
    <clipPath
       id="clippath-1">
      <path
         class="st0"
         d="M302.38,41.75S239.59-13.65,161.36,7.56C83.13,28.78,55.49,108.7,55.49,108.7c0,0,69.97,53.45,142.46,33.8,72.49-19.66,104.44-100.75,104.44-100.75Z"
         id="path2" />
    </clipPath>
  </defs>
  <rect
     style="display:none;opacity:1;fill:#000000;fill-opacity:1;stroke:none;stroke-width:0.188976;stroke-linecap:round;stroke-linejoin:round;stroke-opacity:1"
     id="rect17"
     width="1323.76"
     height="739.48981"
     x="-109.82523"
     y="-344.11902" />
  <circle
     class="st2"
     cx="181.05"
     cy="79.33"
     r="33.11"
     id="circle3" />
  <g
     id="g12"
     style="stroke:none;stroke-opacity:1;fill:#f0faff;fill-opacity:1">
    <path
       d="m 341,77.43 c 4.14,2.7 6.2,6.04 6.2,10.01 0,2.43 -0.74,4.38 -2.23,5.87 -1.49,1.49 -3.45,2.23 -5.87,2.23 -4.3,0 -7,-2.81 -8.11,-8.44 -0.55,-3.09 -1.43,-5.29 -2.65,-6.62 -1.21,-1.32 -3.09,-1.98 -5.62,-1.98 -2.53,0 -5.05,0.66 -7.2,1.98 -2.15,1.32 -3.83,3.37 -5.05,6.12 -2.32,4.96 -3.47,14.06 -3.47,27.3 v 9.1 h 21.34 l -1.98,5.29 h -19.35 v 76.76 l 17.54,2.48 v 3.14 h -45.66 v -3.14 l 12.41,-2.48 v -76.76 h -14.56 l 1.98,-5.29 h 12.57 c 0,-8.27 0.17,-14.53 0.5,-18.78 0.33,-4.24 0.99,-7.75 1.99,-10.5 2.2,-6.06 6.34,-10.97 12.41,-14.72 6.06,-3.75 12.63,-5.62 19.69,-5.62 5.96,0 11,1.35 15.14,4.05 z"
       id="path4"
       style="display:inline;fill:#f0faff;fill-opacity:1;stroke:none;stroke-opacity:1" />
    <path
       d="M393.94,124.25c2.04,2.04,3.06,4.49,3.06,7.36,0,2.65-.91,4.88-2.73,6.7-1.82,1.82-4.11,2.73-6.87,2.73s-4.74-1.05-6.29-3.14c-.99-1.21-1.85-2.04-2.56-2.48-.72-.44-1.57-.66-2.56-.66-1.32,0-2.48.3-3.47.91-.99.61-2.04,1.68-3.14,3.23-1.88,2.54-3.09,4.25-3.64,5.13-.55.88-.94,1.88-1.16,2.98v57.9l16.54,2.48v3.31h-44.83v-3.31l12.57-2.48v-68.82l-12.24-4.63v-2.15l25.64-8.11h1.65v18.03c3.86-5.84,7.75-10.31,11.66-13.4,3.91-3.09,7.58-4.63,11-4.63,2.87,0,5.32,1.02,7.36,3.06Z"
       id="path5"
       style="stroke:none;stroke-opacity:1;fill:#f0faff;fill-opacity:1" />
    <path
       d="M423,159.73c-.11.77-.17,2.04-.17,3.81,0,12.13,2.42,21.29,7.28,27.46,4.85,6.18,11.97,9.26,21.34,9.26,5.4,0,10.42-.96,15.05-2.9,4.63-1.93,8.38-4.66,11.25-8.19l1.98-2.48,2.81,1.65-.99,2.32c-2.87,6.73-7.5,12.02-13.89,15.88-6.4,3.86-13.62,5.79-21.67,5.79s-14.75-1.85-20.76-5.54c-6.01-3.69-10.67-8.88-13.98-15.55-3.31-6.67-4.96-14.36-4.96-23.08,0-9.15,1.85-17.29,5.54-24.4,3.69-7.11,8.88-12.63,15.55-16.54,6.67-3.91,14.36-5.87,23.08-5.87,10.81,0,19.11,3.17,24.9,9.51,5.79,6.34,8.79,15.63,9.02,27.87l-1.16.99h-60.21ZM431.43,133.93c-4.41,4.96-7.11,12.02-8.11,21.17l43.18-1.49c.33-1.32.5-3.58.5-6.78,0-13.57-6.01-20.35-18.03-20.35-7.28,0-13.12,2.48-17.54,7.44Z"
       id="path6"
       style="stroke:none;stroke-opacity:1;fill:#f0faff;fill-opacity:1" />
    <path
       d="M515.63,159.73c-.11.77-.17,2.04-.17,3.81,0,12.13,2.42,21.29,7.28,27.46,4.85,6.18,11.97,9.26,21.34,9.26,5.4,0,10.42-.96,15.05-2.9,4.63-1.93,8.38-4.66,11.25-8.19l1.98-2.48,2.81,1.65-.99,2.32c-2.87,6.73-7.5,12.02-13.89,15.88-6.4,3.86-13.62,5.79-21.67,5.79s-14.75-1.85-20.76-5.54c-6.01-3.69-10.67-8.88-13.98-15.55-3.31-6.67-4.96-14.36-4.96-23.08,0-9.15,1.85-17.29,5.54-24.4,3.69-7.11,8.88-12.63,15.55-16.54,6.67-3.91,14.36-5.87,23.08-5.87,10.81,0,19.11,3.17,24.9,9.51,5.79,6.34,8.79,15.63,9.02,27.87l-1.16.99h-60.21ZM524.07,133.93c-4.41,4.96-7.11,12.02-8.11,21.17l43.18-1.49c.33-1.32.5-3.58.5-6.78,0-13.57-6.01-20.35-18.03-20.35-7.28,0-13.12,2.48-17.54,7.44Z"
       id="path7"
       style="stroke:none;stroke-opacity:1;fill:#f0faff;fill-opacity:1" />
    <path
       d="M632.09,248.9v3.14h-44.5v-3.14l12.41-2.48v-110.34l-12.08-4.47v-2.32l25.48-7.94h1.82v14.56h.66c3.2-4.85,7.2-8.49,11.99-10.92,4.8-2.42,9.79-3.64,14.97-3.64,6.84,0,12.9,1.9,18.2,5.71,5.29,3.81,9.4,9.07,12.32,15.8,2.92,6.73,4.38,14.28,4.38,22.66,0,9.16-1.93,17.26-5.79,24.32-3.86,7.06-9.26,12.57-16.21,16.54-6.95,3.97-14.94,5.96-23.99,5.96-5.74,0-11.08-.83-16.05-2.48v36.56l16.38,2.48ZM647.15,202.41c4.3-3.31,7.61-7.94,9.93-13.9,2.32-5.96,3.47-12.74,3.47-20.35,0-11.14-2.32-19.93-6.95-26.39-4.63-6.45-10.97-9.68-19.02-9.68-3.42,0-6.95.94-10.59,2.81-3.64,1.88-6.12,4.14-7.44,6.78v49.46c0,4.74,1.51,8.63,4.55,11.66,3.03,3.03,6.81,4.55,11.33,4.55,5.51,0,10.42-1.65,14.72-4.96Z"
       id="path8"
       style="stroke:none;stroke-opacity:1;fill:#f0faff;fill-opacity:1" />
    <path
       d="M758.72,127.23c6.67,3.92,11.88,9.35,15.63,16.29,3.75,6.95,5.62,14.72,5.62,23.32s-1.88,16.38-5.62,23.33c-3.75,6.95-8.96,12.38-15.63,16.29-6.67,3.92-14.09,5.87-22.25,5.87s-15.58-1.96-22.25-5.87c-6.67-3.91-11.88-9.35-15.63-16.29-3.75-6.95-5.62-14.72-5.62-23.33s1.87-16.38,5.62-23.32c3.75-6.95,8.96-12.38,15.63-16.29,6.67-3.91,14.09-5.87,22.25-5.87s15.58,1.96,22.25,5.87ZM717.37,194.8c4.58,6.73,10.89,10.09,18.94,10.09s14.56-3.39,19.19-10.17c4.63-6.78,6.95-16.13,6.95-28.04s-2.29-21.06-6.87-27.79c-4.58-6.73-10.95-10.09-19.11-10.09s-14.53,3.37-19.11,10.09c-4.58,6.73-6.86,16.05-6.86,27.96s2.29,21.23,6.86,27.96Z"
       id="path9"
       style="stroke:none;stroke-opacity:1;fill:#f0faff;fill-opacity:1" />
    <path
       d="M850.37,124.25c2.04,2.04,3.06,4.49,3.06,7.36,0,2.65-.91,4.88-2.73,6.7s-4.11,2.73-6.87,2.73-4.74-1.05-6.29-3.14c-.99-1.21-1.85-2.04-2.56-2.48-.72-.44-1.57-.66-2.56-.66-1.32,0-2.48.3-3.47.91-.99.61-2.04,1.68-3.14,3.23-1.88,2.54-3.09,4.25-3.64,5.13-.55.88-.94,1.88-1.16,2.98v57.9l16.54,2.48v3.31h-44.83v-3.31l12.57-2.48v-68.82l-12.24-4.63v-2.15l25.64-8.11h1.65v18.03c3.86-5.84,7.75-10.31,11.66-13.4,3.91-3.09,7.58-4.63,11-4.63,2.87,0,5.32,1.02,7.36,3.06Z"
       id="path10"
       style="stroke:none;stroke-opacity:1;fill:#f0faff;fill-opacity:1" />
    <path
       d="M877.41,207.71c-1.99-1.87-3.39-4.22-4.22-7.03-.83-2.81-1.24-6.75-1.24-11.83v-60.05h-10.75l-.33-2.65,23.82-24.81,2.98.33v21.34h23.66l-1.32,5.79h-22.33v58.56c0,3.97.11,6.81.33,8.52.22,1.71.6,3.06,1.16,4.05,1.76,3.09,4.52,4.63,8.27,4.63,2.21,0,4.44-.6,6.7-1.82,2.26-1.21,4.22-2.87,5.87-4.96l2.81,2.15c-2.54,3.86-5.82,6.89-9.84,9.1-4.03,2.2-8.24,3.31-12.65,3.31-5.29,0-9.59-1.55-12.9-4.63Z"
       id="path11"
       style="stroke:none;stroke-opacity:1;fill:#f0faff;fill-opacity:1" />
    <path
       d="M965.33,122.1c3.58.5,6.42,1.19,8.52,2.07v22.99h-3.47c-1.65-13.9-8.11-20.84-19.35-20.84-4.41,0-7.91,1.21-10.5,3.64-2.59,2.43-3.89,5.68-3.89,9.76,0,3.09.8,5.71,2.4,7.86,1.6,2.15,3.56,3.94,5.87,5.38,2.32,1.43,5.51,3.09,9.59,4.96,5.07,2.32,9.12,4.47,12.16,6.45,3.03,1.98,5.65,4.71,7.86,8.19,2.21,3.47,3.31,7.8,3.31,12.99,0,8.16-2.73,14.67-8.19,19.52-5.46,4.85-12.88,7.28-22.25,7.28-3.53,0-7.42-.33-11.66-.99-4.25-.66-7.97-1.54-11.17-2.65l-.99-26.8h3.97c.77,8.38,2.92,14.72,6.45,19.02,3.53,4.3,8.44,6.45,14.72,6.45,4.96,0,8.93-1.38,11.91-4.14,2.98-2.76,4.47-6.45,4.47-11.08,0-3.42-.83-6.31-2.48-8.68-1.65-2.37-3.7-4.3-6.12-5.79-2.43-1.49-5.85-3.33-10.26-5.54-4.96-2.42-8.93-4.6-11.91-6.53-2.98-1.93-5.52-4.55-7.61-7.86-2.1-3.31-3.14-7.39-3.14-12.24,0-7.72,2.67-13.67,8.02-17.87,5.35-4.19,12.93-6.29,22.75-6.29,3.75,0,7.42.25,11,.74Z"
       id="path12"
       style="stroke:none;stroke-opacity:1;fill:#f0faff;fill-opacity:1" />
  </g>
  <g
     class="st3"
     clip-path="url(#clippath-1)"
     id="g13">
    <path
       class="st5"
       d="M302.38,41.75S239.59-13.65,161.36,7.56C83.13,28.78,55.49,108.7,55.49,108.7c0,0,69.97,53.45,142.46,33.8,72.49-19.66,104.44-100.75,104.44-100.75Z"
       id="path13" />
  </g>
  <path
     class="st1"
     d="M264.04,255.56l-84.63,15.15-62.45,11.19,7.52-39.38,18.49-96.94-4.05-1.8c-18.3-12.53-36.1-49.95-31.99-72.08C113.96,33.86,147.62,4.65,186.09,4.65c18.77,0,35.82,7.44,48.35,19.54,13.16,12.66,21.32,30.46,21.32,50.15,0,4.07-.35,8.06-1.03,11.94-3.14,18.29-13.45,34.13-27.9,44.54l4.08,13.7,6.39,21.45,26.73,89.59Z"
     id="path14" />
  <circle
     class="st4"
     cx="181.18"
     cy="73.52"
     r="33.11"
     id="circle14" />
  <g
     id="g15">
    <path
       class="st4"
       d="M302.39,41.75c-9.37,22.26-21.6,41.34-36.59,57.36-3.76-6.24-7.46-10.43-11.06-12.83-18.09-12.08-34.17,20.51-47.33,64-2.51,8.3-4.93,17.01-7.23,25.88-8.63,33.37-15.67,69.07-20.77,94.54l-62.45,11.19,16.76-39.38c7.07-2.87,14.93-8.78,22.17-20.28,3.96-6.29,8.04-21.08,12.91-39.95,1.76-6.76,3.61-14.04,5.59-21.65,13.51-51.71,33.28-118.31,69.29-136.45,18.12-9.12,31.09-5.96,58.7,17.56Z"
       id="path15" />
    <polygon
       class="st4"
       points="135.81 185.87 238.61 170.37 231.03 144.49 139.89 166.83 135.81 185.87"
       id="polygon15" />
  </g>
  <polygon
     class="st4"
     points="147.69 106.4 107.57 161.99 45.22 144.11 138.99 96.74 147.69 106.4"
     id="polygon16" />
  <polygon
     class="st4"
     points="133.61 83.67 15 72.66 60.32 26.52 133.66 68.54 133.61 83.67"
     id="polygon17" />
</svg>
