<?xml version="1.0" encoding="UTF-8"?>
<svg id="Livello_1" xmlns="http://www.w3.org/2000/svg" xmlns:xlink="http://www.w3.org/1999/xlink" version="1.1" viewBox="0 0 297.64 297.64">
  <!-- Generator: Adobe Illustrator 29.0.0, SVG Export Plug-In . SVG Version: 2.1.0 Build 186)  -->
  <defs>
    <style>
      .st0 {
        fill: none;
      }

      .st1 {
        fill: #d422ff;
      }

      .st2 {
        fill: #ffcd40;
        opacity: .85;
      }

      .st3 {
        clip-path: url(#clippath-1);
      }

      .st4 {
        fill: #f9be2d;
      }

      .st5 {
        fill: #fc3284;
      }

      .st6 {
        clip-path: url(#clippath);
      }
    </style>
    <clipPath id="clippath">
      <path class="st0" d="M291.44,49.22S228.65-6.18,150.42,15.03C72.18,36.24,44.54,116.16,44.54,116.16c0,0,69.97,53.45,142.46,33.8,72.49-19.66,104.44-100.75,104.44-100.75Z"/>
    </clipPath>
    <clipPath id="clippath-1">
      <path class="st0" d="M291.86,49.51S229.07-5.89,150.84,15.32C72.6,36.54,44.96,116.46,44.96,116.46c0,0,69.97,53.45,142.46,33.8,72.49-19.66,104.44-100.75,104.44-100.75Z"/>
    </clipPath>
  </defs>
  <g class="st6">
    <path class="st5" d="M291.44,49.22S228.65-6.18,150.42,15.03C72.18,36.24,44.54,116.16,44.54,116.16c0,0,69.97,53.45,142.46,33.8,72.49-19.66,104.44-100.75,104.44-100.75Z"/>
  </g>
  <circle class="st2" cx="170.52" cy="87.09" r="33.11"/>
  <g class="st3">
    <path class="st5" d="M291.86,49.51S229.07-5.89,150.84,15.32C72.6,36.54,44.96,116.46,44.96,116.46c0,0,69.97,53.45,142.46,33.8,72.49-19.66,104.44-100.75,104.44-100.75Z"/>
  </g>
  <path class="st1" d="M253.52,263.32l-84.63,15.15-62.45,11.19,7.52-39.38,18.49-96.94-4.05-1.8c-18.3-12.53-36.1-49.95-31.99-72.08,7.03-37.82,40.69-67.04,79.16-67.04,18.77,0,35.82,7.44,48.35,19.54,13.16,12.66,21.32,30.46,21.32,50.15,0,4.07-.35,8.06-1.03,11.94-3.14,18.29-13.45,34.13-27.9,44.54l4.08,13.7,6.39,21.45,26.73,89.59Z"/>
  <circle class="st4" cx="170.66" cy="81.28" r="33.11"/>
  <g>
    <path class="st4" d="M291.86,49.51c-9.37,22.26-21.6,41.34-36.59,57.36-3.76-6.24-7.46-10.43-11.06-12.83-18.09-12.08-34.17,20.51-47.33,64-2.51,8.3-4.93,17.01-7.23,25.88-8.63,33.37-15.67,69.07-20.77,94.54l-62.45,11.19,16.76-39.38c7.07-2.87,14.93-8.78,22.17-20.28,3.96-6.29,8.04-21.08,12.91-39.95,1.76-6.76,3.61-14.04,5.59-21.65,13.51-51.71,33.28-118.31,69.29-136.45,18.12-9.12,31.09-5.96,58.7,17.56Z"/>
    <polygon class="st4" points="124.75 193.67 228.08 178.13 220.51 152.26 128.44 174.79 124.75 193.67"/>
  </g>
  <polygon class="st4" points="137.17 114.17 97.05 169.75 34.7 151.87 128.47 104.5 137.17 114.17"/>
  <polygon class="st4" points="123.09 91.43 4.48 80.42 49.8 34.28 123.14 76.3 123.09 91.43"/>
</svg>