<svg width="1000" height="1000" viewBox="0 0 1000 1000" fill="none" xmlns="http://www.w3.org/2000/svg">
<mask id="mask0_8_2" style="mask-type:luminance" maskUnits="userSpaceOnUse" x="149" y="34" width="831" height="485">
<path d="M979.169 165.368C979.169 165.368 768.21 -20.7633 505.376 50.4972C242.508 121.758 149.644 390.27 149.644 390.27C149.644 390.27 384.726 569.849 628.276 503.83C871.825 437.777 979.169 165.334 979.169 165.334V165.368Z" fill="white"/>
</mask>
<g mask="url(#mask0_8_2)">
<path d="M979.169 165.368C979.169 165.368 768.21 -20.7633 505.376 50.4972C242.508 121.758 149.644 390.27 149.644 390.27C149.644 390.27 384.726 569.849 628.276 503.83C871.825 437.777 979.169 165.334 979.169 165.334V165.368Z" fill="#FC3284"/>
</g>
<path opacity="0.85" d="M572.907 403.844C634.344 403.844 684.149 354.039 684.149 292.602C684.149 231.165 634.344 181.36 572.907 181.36C511.47 181.36 461.665 231.165 461.665 292.602C461.665 354.039 511.47 403.844 572.907 403.844Z" fill="#FFCD40"/>
<mask id="mask1_8_2" style="mask-type:luminance" maskUnits="userSpaceOnUse" x="151" y="35" width="830" height="485">
<path d="M980.58 166.342C980.58 166.342 769.621 -19.789 506.787 51.4716C243.919 122.766 151.055 391.278 151.055 391.278C151.055 391.278 386.138 570.857 629.687 504.838C873.236 438.785 980.58 166.342 980.58 166.342Z" fill="white"/>
</mask>
<g mask="url(#mask1_8_2)">
<path d="M980.58 166.342C980.58 166.342 769.621 -19.789 506.787 51.4716C243.919 122.766 151.055 391.278 151.055 391.278C151.055 391.278 386.138 570.857 629.687 504.838C873.236 438.785 980.58 166.342 980.58 166.342Z" fill="#FC3284"/>
</g>
<path d="M851.767 884.693L567.43 935.593L357.613 973.189L382.879 840.882L445.001 515.186L431.394 509.139C369.91 467.041 310.106 341.318 323.915 266.967C347.534 139.901 460.624 41.7283 589.874 41.7283C652.936 41.7283 710.22 66.7249 752.318 107.378C796.533 149.913 823.948 209.716 823.948 275.87C823.948 289.544 822.772 302.95 820.488 315.986C809.938 377.436 775.299 430.655 726.75 465.63L740.458 511.658L761.927 583.725L851.734 884.727L851.767 884.693Z" fill="#D422FF"/>
<path d="M573.377 384.323C634.814 384.323 684.619 334.519 684.619 273.082C684.619 211.644 634.814 161.84 573.377 161.84C511.94 161.84 462.135 211.644 462.135 273.082C462.135 334.519 511.94 384.323 573.377 384.323Z" fill="#F9BE2D"/>
</svg>
