<svg width="303" height="284" viewBox="0 0 303 284" fill="none" xmlns="http://www.w3.org/2000/svg">
<path d="M114.97 114.692L90.7083 129.973C69.3152 120.118 55.7185 109.702 55.7185 109.702C55.7185 109.702 61.5813 92.8623 75.4898 72.7168L105.865 78.0805C105.303 88.933 109.045 102.405 114.97 114.692Z" fill="#FC3284"/>
<path d="M140.605 145.441C135.428 144.692 130.376 143.632 125.511 142.385L129.066 136.334C131.935 139.515 134.929 142.197 137.86 144.256L140.605 145.441Z" fill="#FC3284"/>
<path d="M278.943 29.8683C260.668 19.8888 245.2 19.8888 231.915 26.5624C219.566 14.6498 202.788 7.28979 184.327 7.28979C153.703 7.28979 126.135 26.1258 113.1 53.0075L99.6897 44.4003C114.971 29.9303 134.804 16.9575 160.002 10.159C210.647 -3.56262 254.681 15.3358 278.943 29.8683Z" fill="#FC3284"/>
<path d="M262.664 100.097C252.685 111.137 240.46 121.927 225.99 130.347C239.4 120.118 248.943 105.025 251.874 87.6855C255.367 89.9931 258.984 94.0474 262.664 100.097Z" fill="#FC3284"/>
<path d="M231.915 26.5624C220.314 32.3629 210.46 43.3401 201.915 57.1862C196.115 51.76 188.318 48.517 179.774 48.517C161.748 48.517 147.154 63.1115 147.154 81.1366C147.154 98.2885 160.501 112.384 177.341 113.569C173.661 124.796 170.356 136.21 167.362 147.187C166.114 151.865 164.867 156.418 163.682 160.846L138.858 166.959L134.804 185.732L158.193 182.177C153.391 200.763 149.399 215.296 145.47 221.533C138.359 232.822 130.626 238.622 123.64 241.491L141.852 146.002L140.605 145.441L137.86 144.256C134.929 142.197 131.935 139.515 129.066 136.334L145.158 108.892L136.613 101.033L114.97 114.692C109.045 102.405 105.303 88.933 105.865 78.0805L134.992 83.195L137.174 68.4752L113.099 53.0075C126.135 26.1258 153.703 7.28979 184.326 7.28979C202.788 7.28979 219.566 14.6498 231.915 26.5624Z" fill="#D422FF"/>
<path d="M261.042 254.34L177.715 269.246C182.767 244.173 189.691 208.996 198.173 176.127L236.032 170.451L261.042 254.34Z" fill="#D422FF"/>
<path d="M225.99 130.347C225.429 130.784 224.93 131.158 224.431 131.532L228.422 145.004L205.283 150.68C206.53 146.501 207.84 142.509 209.15 138.58C221.312 102.031 235.782 76.8955 251.874 87.6855C248.943 105.025 239.4 120.118 225.99 130.347Z" fill="#D422FF"/>
<path d="M201.915 57.1862C192.06 73.2155 184.077 93.1117 177.341 113.569C160.501 112.384 147.154 98.2885 147.154 81.1366C147.154 63.1115 161.748 48.517 179.774 48.517C188.318 48.517 196.115 51.76 201.915 57.1862Z" fill="#FEC944"/>
<path d="M291.541 58.9952C283.621 74.5878 274.015 88.3094 262.789 100.284C262.726 100.222 262.726 100.16 262.664 100.097C264.847 97.727 266.905 95.2949 268.838 92.9248C270.211 91.3031 271.458 89.6814 272.706 88.0597C273.828 86.6253 274.826 85.2529 275.824 83.881C278.569 80.2009 281.001 76.5213 283.246 73.091C284.556 71.0951 285.741 69.0992 286.864 67.2281C288.61 64.2965 290.169 61.4898 291.541 58.9952Z" fill="#FFCD40"/>
<path d="M293.475 39.5356C292.914 39.099 292.29 38.6623 291.666 38.2257C291.043 37.7266 290.356 37.29 289.608 36.7913C287.3 35.1072 284.494 33.2361 281.375 31.3027C285.242 33.4855 289.296 36.2298 293.475 39.5356Z" fill="#FFCD40"/>
<path d="M298.839 43.8392C298.652 44.151 298.527 44.4628 298.402 44.837C298.028 45.6478 297.654 46.4587 297.342 47.2695C297.03 47.9555 296.718 48.5794 296.469 49.203C296.157 49.8265 295.845 50.5129 295.471 51.1989C295.346 51.5106 295.159 51.8849 295.034 52.1966C294.348 53.6935 293.6 55.1282 292.851 56.5626C292.415 57.3735 292.04 58.1843 291.541 58.9952C290.169 61.4898 288.61 64.2965 286.864 67.2281C285.741 69.0992 284.556 71.0951 283.246 73.091C281.001 76.5213 278.569 80.2009 275.824 83.881C274.826 85.2529 273.828 86.6253 272.706 88.0597C271.458 89.6814 270.211 91.3031 268.838 92.9248C266.905 95.2949 264.847 97.727 262.664 100.097C258.984 94.0474 255.367 89.9931 251.874 87.6855C235.782 76.8955 221.312 102.031 209.15 138.58C207.84 142.509 206.53 146.501 205.283 150.68L228.422 145.004L234.722 166.085L236.495 171.954L236.878 173.158L197.166 179.259C188.684 212.129 182.767 244.173 177.715 269.246L116.28 280.223L123.64 241.491C130.626 238.622 138.359 232.822 145.47 221.533C149.399 215.296 152.57 203.447 157.373 184.861L133.807 188.55L137.854 167.247L163.682 160.846C164.867 156.418 166.114 151.865 167.362 147.187C170.356 136.21 173.661 124.796 177.341 113.569C178.152 113.694 178.963 113.694 179.774 113.694C197.799 113.694 212.393 99.0994 212.393 81.1366C212.393 71.6562 208.339 63.1115 201.915 57.1862C210.46 43.3401 220.314 32.3629 231.915 26.5624C245.2 19.8888 260.668 19.8888 278.943 29.8683C279.005 29.8683 279.067 29.9303 279.13 29.9303C279.878 30.367 280.627 30.7412 281.375 31.3027C284.493 33.2361 287.3 35.1072 289.608 36.7913C290.356 37.29 291.043 37.7266 291.666 38.2257C292.29 38.6623 292.914 39.099 293.475 39.5356C293.725 39.7225 293.974 39.9098 294.223 40.0967C294.473 40.284 294.722 40.4709 294.972 40.7207C295.471 41.0949 295.907 41.4067 296.282 41.7184C296.905 42.2175 297.467 42.7166 298.09 43.2153C298.277 43.4026 298.527 43.5895 298.714 43.7768C298.777 43.7768 298.777 43.8392 298.839 43.8392Z" fill="#FEC944"/>
<path d="M234.722 166.085L228.422 145.004L228.547 144.942L234.722 166.085Z" fill="#FFCD40"/>
<path d="M145.158 108.892L129.066 136.334L125.511 142.385L114.16 161.782L57.0909 151.116L90.7083 129.973L114.971 114.692L136.613 101.033L145.158 108.892Z" fill="#FEC944"/>
<path d="M137.174 68.4752L134.992 83.195L105.865 78.0805L75.4899 72.7168L3.95111 60.1178L62.018 20.2005L99.6897 44.4003L113.099 53.0075L137.174 68.4752Z" fill="#FEC944"/>
<path d="M216.562 81.7022C216.562 101.729 200.324 118 180.268 118C179.366 118 178.464 118 177.562 117.861C174.562 91 183.562 69 204.904 55C212.052 61.606 216.562 71.1325 216.562 81.7022Z" fill="#FEC944"/>
</svg>
