<?xml version="1.0" encoding="UTF-8" standalone="no"?>
<!-- Created with Inkscape (http://www.inkscape.org/) -->

<svg
   width="125mm"
   height="125mm"
   viewBox="0 0 125 125"
   version="1.1"
   id="svg1"
   xml:space="preserve"
   inkscape:version="1.4.2 (ebf0e940d0, 2025-05-08)"
   sodipodi:docname="icon-opaque.svg"
   inkscape:export-filename="freeports-logo-icon.png"
   inkscape:export-xdpi="100"
   inkscape:export-ydpi="100"
   xmlns:inkscape="http://www.inkscape.org/namespaces/inkscape"
   xmlns:sodipodi="http://sodipodi.sourceforge.net/DTD/sodipodi-0.dtd"
   xmlns="http://www.w3.org/2000/svg"
   xmlns:svg="http://www.w3.org/2000/svg"><sodipodi:namedview
     id="namedview1"
     pagecolor="#ffffff"
     bordercolor="#000000"
     borderopacity="0.25"
     inkscape:showpageshadow="2"
     inkscape:pageopacity="0.0"
     inkscape:pagecheckerboard="0"
     inkscape:deskcolor="#d1d1d1"
     inkscape:document-units="mm"
     inkscape:zoom="2.8183942"
     inkscape:cx="131.10302"
     inkscape:cy="324.12073"
     inkscape:window-width="1920"
     inkscape:window-height="1080"
     inkscape:window-x="0"
     inkscape:window-y="0"
     inkscape:window-maximized="1"
     inkscape:current-layer="svg1" /><defs
     id="defs1"><inkscape:path-effect
       effect="powerclip"
       message=""
       id="path-effect43"
       is_visible="true"
       lpeversion="1"
       inverse="true"
       flatten="false"
       hide_clip="false" /><clipPath
       clipPathUnits="userSpaceOnUse"
       id="clipPath7"><path
         style="fill:#e9afe9;fill-opacity:0.894459;stroke:none;stroke-width:0.769001;stroke-linecap:round;stroke-linejoin:round;stroke-dasharray:none;stroke-opacity:1"
         d="m 35.087768,62.029866 c 0,0 7.474334,-8.735703 24.641821,-7.608726 20.252377,1.329492 20.556436,8.166746 22.339704,9.416431 3.776938,2.646818 3.718018,5.630058 -0.812969,4.730467 -4.3541,-0.864473 -1.506048,4.108283 -22.300634,3.417721 -18.880928,-0.627015 -22.204651,-7.28191 -23.867925,-9.955893 z"
         id="path8"
         sodipodi:nodetypes="csssscc"
         inkscape:label="mask" /></clipPath><clipPath
       clipPathUnits="userSpaceOnUse"
       id="clipPath8"><path
         style="fill:#e9afe9;fill-opacity:0.894459;stroke:none;stroke-width:0.769001;stroke-linecap:round;stroke-linejoin:round;stroke-dasharray:none;stroke-opacity:1"
         d="m 35.087768,62.029866 c 0,0 7.474334,-8.735703 24.641821,-7.608726 20.252377,1.329492 20.556436,8.166746 22.339704,9.416431 3.776938,2.646818 3.718018,5.630058 -0.812969,4.730467 -4.3541,-0.864473 -1.506048,4.108283 -22.300634,3.417721 -18.880928,-0.627015 -22.204651,-7.28191 -23.867925,-9.955893 z"
         id="path9"
         sodipodi:nodetypes="csssscc"
         inkscape:label="mask" /></clipPath><clipPath
       clipPathUnits="userSpaceOnUse"
       id="clipPath9"><path
         style="fill:#e9afe9;fill-opacity:0.894459;stroke:none;stroke-width:0.769001;stroke-linecap:round;stroke-linejoin:round;stroke-dasharray:none;stroke-opacity:1"
         d="m 35.087768,62.029866 c 0,0 7.474334,-8.735703 24.641821,-7.608726 20.252377,1.329492 20.556436,8.166746 22.339704,9.416431 3.776938,2.646818 3.718018,5.630058 -0.812969,4.730467 -4.3541,-0.864473 -1.506048,4.108283 -22.300634,3.417721 -18.880928,-0.627015 -22.204651,-7.28191 -23.867925,-9.955893 z"
         id="path10"
         sodipodi:nodetypes="csssscc"
         inkscape:label="mask" /></clipPath><clipPath
       clipPathUnits="userSpaceOnUse"
       id="clipPath10"><path
         style="fill:#e9afe9;fill-opacity:0.894459;stroke:none;stroke-width:0.769001;stroke-linecap:round;stroke-linejoin:round;stroke-dasharray:none;stroke-opacity:1"
         d="m 34.57511,61.85898 c 0,0 7.474333,-8.735703 24.64182,-7.608726 20.252378,1.329492 20.556437,8.166746 22.339705,9.416431 3.776938,2.646817 3.718018,5.630058 -0.812969,4.730467 -4.3541,-0.864473 -1.506048,4.108283 -22.300634,3.417721 C 39.562103,71.187858 36.238381,64.532962 34.575107,61.85898 Z"
         id="path11"
         sodipodi:nodetypes="csssscc"
         inkscape:label="mask" /></clipPath><clipPath
       clipPathUnits="userSpaceOnUse"
       id="clipPath43"><path
         style="display:none;fill:#ffec1d;fill-opacity:0.312516;stroke:#000000;stroke-width:0.450001;stroke-linecap:round;stroke-linejoin:round;stroke-dasharray:none;stroke-opacity:1"
         d="M 96.505895,73.881459 C 74.163092,60.550877 54.53339,95.687613 54.53339,95.687613 c 0,0 11.734025,0.08514 21.098356,-0.84155 7.001066,-0.692822 20.406228,-2.617634 20.406228,-2.617634 0,0 2.617724,1.221677 4.313616,1.431798 1.95053,0.241668 3.63258,-0.441875 3.63258,-0.441875 0,0 4.76377,2.709198 12.94748,5.376656 4.81713,1.570132 10.69604,4.310822 19.35,5.303722 0,0 -17.43295,-16.686692 -39.775755,-30.017271 z"
         id="path43"
         sodipodi:nodetypes="scscscscs" /><path
         id="lpe_path-effect43"
         style="display:inline;fill:#ffec1d;fill-opacity:0.312516;stroke:#000000;stroke-width:0.450001;stroke-linecap:round;stroke-linejoin:round;stroke-dasharray:none;stroke-opacity:1"
         class="powerclip"
         d="m 68.756043,86.5876 h 45.912377 v 19.40224 H 68.756043 Z M 96.505895,73.881459 C 74.163092,60.550877 54.53339,95.687613 54.53339,95.687613 c 0,0 11.734025,0.08514 21.098356,-0.84155 7.001066,-0.692822 20.406228,-2.617634 20.406228,-2.617634 0,0 2.617724,1.221677 4.313616,1.431798 1.95053,0.241668 3.63258,-0.441875 3.63258,-0.441875 0,0 4.76377,2.709198 12.94748,5.376656 4.81713,1.570132 10.69604,4.310822 19.35,5.303722 0,0 -17.43295,-16.686692 -39.775755,-30.017271 z" /></clipPath><clipPath
       clipPathUnits="userSpaceOnUse"
       id="clipPath4"><g
         id="g8"
         style="opacity:1"
         transform="matrix(0.99208066,0,0,0.99208066,0.49495681,0.49495575)"><path
           style="baseline-shift:baseline;display:inline;overflow:visible;vector-effect:none;fill:#c5d027;fill-opacity:0;stroke-linecap:round;stroke-linejoin:round;enable-background:accumulate;stop-color:#000000;stop-opacity:1"
           d="M 75.856467,120.13905 A 59.167866,59.167068 0 0 1 4.8619292,75.866565 59.167866,59.167068 0 0 1 49.121404,4.8644989 59.167866,59.167068 0 0 1 120.13291,49.109766 59.167866,59.167068 0 0 1 75.900662,120.1288"
           id="path5" /><path
           style="baseline-shift:baseline;display:inline;overflow:visible;vector-effect:none;fill:#d33559;stroke:#000000;stroke-linecap:round;stroke-linejoin:round;stroke-opacity:1;enable-background:accumulate;stop-color:#000000;stop-opacity:1"
           d="M 60.912109,0.02148438 C 56.764156,0.12894571 52.566142,0.6527415 48.369141,1.6269531 14.793128,9.4206462 -6.1623761,43.04007 1.625,76.617187 9.4123761,110.1943 43.028424,131.15777 76.607422,123.37695 a 3.3229849,3.3229849 0 0 0 0.01172,-0.0176 3.3229849,3.3229849 0 0 0 0.0332,0.006 C 110.22537,115.55867 131.16939,81.931551 123.36914,48.357422 116.54392,18.980059 89.947784,-0.73074496 60.912109,0.02148438 Z M 61.101562,6.6582031 C 87.081012,5.9650202 110.7824,23.544866 116.89648,49.861328 123.88401,79.937285 105.22352,109.89937 75.148437,116.89258 a 3.3229849,3.3229849 0 0 0 -0.01563,0.0254 3.3229849,3.3229849 0 0 0 -0.02734,-0.0156 C 45.02503,123.87249 15.075599,105.19387 8.0996094,75.115234 1.1236194,45.036601 19.795282,15.083239 49.873047,8.1015625 53.632767,7.2288529 57.390213,6.7572293 61.101562,6.6582031 Z"
           id="path7" /></g></clipPath></defs><g
     inkscape:groupmode="layer"
     id="layer2"
     inkscape:label="image"
     style="display:inline" /><g
     id="path2"
     style="opacity:1"
     transform="matrix(0.99208066,0,0,0.99208066,0.49495681,0.49495575)"><path
       style="baseline-shift:baseline;display:inline;overflow:visible;vector-effect:none;fill:#8f6dd6;fill-opacity:1;stroke-linecap:round;stroke-linejoin:round;enable-background:accumulate;stop-color:#000000;stop-opacity:1"
       d="M 75.856467,120.13905 A 59.167866,59.167068 0 0 1 4.8619292,75.866565 59.167866,59.167068 0 0 1 49.121404,4.8644989 59.167866,59.167068 0 0 1 120.13291,49.109766 59.167866,59.167068 0 0 1 75.900662,120.1288"
       id="path42" /><path
       style="baseline-shift:baseline;display:inline;overflow:visible;vector-effect:none;fill:#d33559;stroke:#000000;stroke-linecap:round;stroke-linejoin:round;stroke-opacity:1;enable-background:accumulate;stop-color:#000000;stop-opacity:1"
       d="M 60.912109,0.02148438 C 56.764156,0.12894571 52.566142,0.6527415 48.369141,1.6269531 14.793128,9.4206462 -6.1623761,43.04007 1.625,76.617187 9.4123761,110.1943 43.028424,131.15777 76.607422,123.37695 a 3.3229849,3.3229849 0 0 0 0.01172,-0.0176 3.3229849,3.3229849 0 0 0 0.0332,0.006 C 110.22537,115.55867 131.16939,81.931551 123.36914,48.357422 116.54392,18.980059 89.947784,-0.73074496 60.912109,0.02148438 Z M 61.101562,6.6582031 C 87.081012,5.9650202 110.7824,23.544866 116.89648,49.861328 123.88401,79.937285 105.22352,109.89937 75.148437,116.89258 a 3.3229849,3.3229849 0 0 0 -0.01563,0.0254 3.3229849,3.3229849 0 0 0 -0.02734,-0.0156 C 45.02503,123.87249 15.075599,105.19387 8.0996094,75.115234 1.1236194,45.036601 19.795282,15.083239 49.873047,8.1015625 53.632767,7.2288529 57.390213,6.7572293 61.101562,6.6582031 Z"
       id="path44" /></g><g
     id="g2"
     inkscape:label="bocca-denti"
     transform="matrix(1.0994171,0,0,1.0994171,-26.353765,-28.749549)"
     style="display:inline"><g
       id="g29"
       inkscape:label="denti"
       style="display:inline"
       clip-path="url(#clipPath43)"
       transform="translate(-28.742368,-8.0701242)"
       inkscape:path-effect="#path-effect43"><path
         style="display:inline;opacity:1;fill:#fffef3;fill-opacity:1;stroke:#020000;stroke-width:0.450001;stroke-linecap:round;stroke-linejoin:round;stroke-dasharray:none;stroke-opacity:1"
         d="m 87.478792,93.408724 -0.04053,3.834431 c 0,0 -2.098754,0.48191 -4.364405,0.421492 -2.265651,-0.06042 -2.507321,-0.362503 -2.507321,-0.362503 l 0.05731,-3.016319 -0.08752,3.106946 c 0,0 -2.990659,0.06042 -4.621928,-0.06042 -1.631268,-0.120835 -1.933355,-0.392713 -1.933355,-0.392713 l 0.01651,-1.943718"
         id="path22"
         inkscape:original-d="m 87.478792,93.408724 -0.04053,3.834431 c 0,0 -2.098754,0.48191 -4.364405,0.421492 -2.265651,-0.06042 -2.507321,-0.362503 -2.507321,-0.362503 l 0.05731,-3.016319 -0.08752,3.106946 c 0,0 -2.990659,0.06042 -4.621928,-0.06042 -1.631268,-0.120835 -1.933355,-0.392713 -1.933355,-0.392713 l 0.01651,-1.943718" /><g
         id="g27"
         inkscape:label="incisivo-dx"
         style="display:inline"><path
           style="display:inline;opacity:1;fill:#fffef3;fill-opacity:1;stroke:#000000;stroke-width:0.450001;stroke-linecap:round;stroke-linejoin:round;stroke-dasharray:none;stroke-opacity:1"
           d="m 87.478792,91.898292 -0.05488,6.702824 c 0,0 4.017753,1.087514 6.85737,1.329182 2.839614,0.241672 4.561509,-0.09062 4.561509,-0.09062 l -0.0538,-8.027077"
           id="path20"
           sodipodi:nodetypes="ccscc"
           inkscape:original-d="m 87.478792,91.898292 -0.05488,6.702824 c 0,0 4.017753,1.087514 6.85737,1.329182 2.839614,0.241672 4.561509,-0.09062 4.561509,-0.09062 l -0.0538,-8.027077" /><path
           style="display:inline;opacity:1;fill:none;fill-opacity:1;stroke:#020000;stroke-width:0.450001;stroke-linecap:round;stroke-linejoin:round;stroke-dasharray:none;stroke-opacity:1"
           d="m 94.948358,99.978172 0.02772,-4.397923"
           id="path24"
           inkscape:original-d="m 94.948358,99.978172 0.02772,-4.397923" /><path
           style="display:inline;opacity:1;fill:none;fill-opacity:1;stroke:#020000;stroke-width:0.450001;stroke-linecap:round;stroke-linejoin:round;stroke-dasharray:none;stroke-opacity:1"
           d="m 97.007742,100.00667 -0.03789,-2.311813"
           id="path25"
           inkscape:original-d="m 97.007742,100.00667 -0.03789,-2.311813" /></g><g
         id="g28"
         inkscape:label="incisivo-sx"
         style="display:inline"
         transform="translate(-0.42292146,-0.49532828)"><path
           style="display:inline;opacity:1;fill:#fffef3;fill-opacity:1;stroke:#020000;stroke-width:0.450001;stroke-linecap:round;stroke-linejoin:round;stroke-dasharray:none;stroke-opacity:1"
           d="m 100.26096,92.723757 -0.17962,7.569043 c 0,0 3.44379,0.99689 5.67923,0.96668 2.23544,-0.0302 4.04797,-0.51355 4.04797,-0.51355 l 0.0578,-7.670516"
           id="path21"
           sodipodi:nodetypes="ccscc"
           inkscape:original-d="m 100.26096,92.723757 -0.17962,7.569043 c 0,0 3.44379,0.99689 5.67923,0.96668 2.23544,-0.0302 4.04797,-0.51355 4.04797,-0.51355 l 0.0578,-7.670516" /><path
           style="display:inline;opacity:1;fill:none;fill-opacity:1;stroke:#020000;stroke-width:0.450001;stroke-linecap:round;stroke-linejoin:round;stroke-dasharray:none;stroke-opacity:1"
           d="m 101.8586,100.73843 0.12589,-3.557121"
           id="path26"
           inkscape:original-d="m 101.8586,100.73843 0.12589,-3.557121" /><path
           style="display:inline;opacity:1;fill:none;fill-opacity:1;stroke:#020000;stroke-width:0.450001;stroke-linecap:round;stroke-linejoin:round;stroke-dasharray:none;stroke-opacity:1"
           d="m 101.98449,96.154215 0.0302,-1.087514"
           id="path27"
           inkscape:original-d="m 101.98449,96.154215 0.0302,-1.087514" /></g></g><g
       id="g6"
       inkscape:label="bocca"
       style="display:inline"
       transform="translate(-28.742368,-8.0701242)"><path
         style="display:inline;opacity:1;fill:none;fill-opacity:1;stroke:#000000;stroke-width:0.95;stroke-linecap:round;stroke-linejoin:round;stroke-dasharray:none;stroke-opacity:1"
         d="m 54.53339,95.687614 c 0,0 11.734025,0.08514 21.098357,-0.84155 7.001066,-0.692822 20.406226,-2.617636 20.406226,-2.617636 0,0 2.617724,1.221679 4.313617,1.431799 1.95053,0.241669 3.63258,-0.441874 3.63258,-0.441874 0,0 4.76377,2.709196 12.94748,5.376654 4.81713,1.570133 11.28278,4.052653 19.35,5.303723"
         id="path18"
         sodipodi:nodetypes="cscscsc"
         inkscape:label="top-line" /><path
         style="display:inline;fill:#241c1c;fill-opacity:1;stroke:#000000;stroke-width:0.60346;stroke-linecap:round;stroke-linejoin:round;stroke-dasharray:none;stroke-opacity:1"
         d="m 306.91234,408.94958 c -20.72897,-7.69627 -36.78892,-16.81634 -52.22189,-29.6556 -4.39506,-3.65641 -11.34911,-10.46992 -14.6663,-14.36988 l -2.26344,-2.66109 2.64274,-0.0776 c 7.74358,-0.22741 21.99487,-0.90517 28.54401,-1.35748 4.09808,-0.28303 7.96997,-0.515 8.60419,-0.51549 l 1.15314,-8.8e-4 v 3.3616 c 0,3.31036 0.0149,3.36917 0.97573,3.85784 1.88787,0.96013 6.04606,1.37804 16.58746,1.66712 5.8544,0.16055 12.24102,0.47495 14.19248,0.69866 4.57657,0.52467 13.20434,0.0829 18.00671,-0.92195 l 0.97573,-0.20417 v 2.32456 2.32456 l 1.86276,0.53599 c 7.36998,2.12063 19.75842,4.33454 27.26713,4.87284 5.31204,0.38082 14.56086,0.0286 15.56632,-0.5928 0.23836,-0.14732 0.36491,-4.38474 0.36491,-12.21899 v -11.99347 l 0.8901,0.17015 0.89011,0.17016 -0.17643,4.83671 c -0.097,2.6602 -0.26251,7.91657 -0.36773,11.68084 l -0.1913,6.84412 1.16298,0.48323 c 1.33091,0.553 9.72026,2.40983 13.93621,3.08452 6.75551,1.08111 22.57118,-0.21944 23.67827,-1.9471 0.14337,-0.22373 0.26312,-3.79968 0.26611,-7.94655 0.004,-5.09662 0.12796,-7.53975 0.38357,-7.53975 0.20797,0 0.70354,0.17415 1.10125,0.387 0.70715,0.37845 0.71798,0.57633 0.4902,8.959 -0.39332,14.4751 -1.15737,24.46619 -1.97178,25.78392 -0.68431,1.10724 -3.9971,-2.46126 -6.9683,-7.50617 -0.8787,-1.49196 -1.94503,-3.03672 -2.36964,-3.43278 -5.11828,-4.77427 -40.30314,-7.05259 -63.57373,-4.11659 -11.61005,1.46482 -19.85947,3.99824 -24.48202,7.51849 -3.5231,2.68298 -5.34163,8.17608 -5.04883,15.25067 0.11628,2.80941 0.0477,3.9868 -0.23148,3.97528 -0.21818,-0.009 -2.47233,-0.787 -5.00924,-1.7289 z"
         id="path37"
         inkscape:label="riempimento-dx"
         transform="scale(0.26458333)" /><path
         style="display:inline;fill:#241c1c;fill-opacity:1;stroke:#000000;stroke-width:0.60346;stroke-linecap:round;stroke-linejoin:round;stroke-dasharray:none;stroke-opacity:1"
         d="m 456.11601,405.66268 c 0.003,-0.25709 0.23518,-1.44238 0.51621,-2.634 0.9947,-4.21775 -2.55101,-11.77754 -2.32121,-17.4852 0.20474,-5.08497 0.30086,-8.983 0.79736,-8.7911 1.96852,0.76086 22.18143,8.49847 25.92544,9.49674 2.48674,0.66305 4.52248,1.31583 4.52385,1.45063 0.003,0.34283 -4.4017,3.9293 -7.88214,6.4172 -4.39391,3.14087 -8.74954,5.75673 -14.64592,8.7959 -5.93881,3.06104 -6.92146,3.45189 -6.91359,2.74983 z"
         id="path38"
         transform="scale(0.26458333)"
         inkscape:label="riempimento-sx"
         sodipodi:nodetypes="csssscssc" /><path
         style="display:inline;opacity:1;fill:none;fill-opacity:1;stroke:#000000;stroke-width:0.85;stroke-linecap:round;stroke-linejoin:round;stroke-dasharray:none;stroke-opacity:1"
         d="m 62.38954,95.594301 c 0,0 9.688359,14.063189 33.130291,15.875709 23.441929,1.81252 33.576669,-9.06336 33.576669,-9.06336"
         id="path19"
         inkscape:label="bottom-line" /><g
         id="g7"
         inkscape:label="lingua"
         style="display:inline"
         transform="translate(0,13.966574)"><path
           id="path29"
           style="display:inline;opacity:1;fill:#d33559;fill-opacity:1;stroke:#000000;stroke-width:0.95;stroke-linecap:round;stroke-linejoin:round;stroke-dasharray:none;stroke-opacity:1"
           d="m 109.81549,49.372009 c -0.0264,1.948562 0.009,11.496122 0.13393,13.729399 l -7.7835,-0.0098 -1.09554,2.754354 h 9.01754 c 0.0719,4.201259 0.11895,21.289146 0.0139,25.691193 -0.0295,1.231384 -1.23404,0.486111 -2.40236,-2.728892 -0.71899,-1.978528 -23.911071,-3.25168 -26.193018,1.05662 -0.616829,1.16457 1.63341,26.359697 16.126405,29.795827 7.945593,1.88382 27.351413,3.05033 23.012883,-25.759024 -0.62807,-4.170581 -1.35629,-23.806868 -1.85443,-28.055724 h 8.63255 l 1.12861,-2.721281 -10.06812,-0.0124 c -0.9067,-15.973362 -0.52784,-23.171251 10.16969,-21.964478 4.28027,0.482851 1.01434,10.334712 8.21345,8.699727 5.51276,-1.251997 2.3704,-10.092736 -6.32188,-11.983551 -6.13006,-1.33346 -19.71228,-0.790228 -20.73011,11.50803 z"
           sodipodi:nodetypes="sccccsssssccccssss" /><path
           style="display:inline;fill:#d33559;fill-opacity:0;stroke:#000000;stroke-width:0.95;stroke-linecap:round;stroke-linejoin:round;stroke-dasharray:none;stroke-opacity:1"
           d="m 110.03731,91.891764 c 0,0 1.88715,17.620206 -11.477897,13.878966"
           id="path6"
           sodipodi:nodetypes="cc" /><g
           id="g31"
           inkscape:label="points-bottom"
           transform="translate(9.2938558,0.65714131)"><path
             style="fill:#000000;fill-opacity:1;stroke:none;stroke-width:0.290902;stroke-linecap:round;stroke-linejoin:round;stroke-opacity:1"
             id="path23"
             sodipodi:type="arc"
             sodipodi:cx="95.75016"
             sodipodi:cy="117.13002"
             sodipodi:rx="0.36412007"
             sodipodi:ry="0.36412007"
             sodipodi:start="1.343095"
             sodipodi:end="1.3423282"
             sodipodi:open="true"
             sodipodi:arc-type="arc"
             d="m 95.832356,117.48474 a 0.36412007,0.36412007 0 0 1 -0.436901,-0.27246 0.36412007,0.36412007 0 0 1 0.272373,-0.43695 0.36412007,0.36412007 0 0 1 0.437006,0.27229 0.36412007,0.36412007 0 0 1 -0.272206,0.43706" /><path
             style="fill:#000000;fill-opacity:1;stroke:none;stroke-width:0.396968;stroke-linecap:round;stroke-linejoin:round;stroke-opacity:1"
             id="path28"
             sodipodi:type="arc"
             sodipodi:cx="97.984467"
             sodipodi:cy="117.13543"
             sodipodi:rx="0.49688265"
             sodipodi:ry="0.49688265"
             sodipodi:start="1.343095"
             sodipodi:end="1.3423282"
             sodipodi:open="true"
             sodipodi:arc-type="arc"
             d="m 98.096632,117.61949 a 0.49688265,0.49688265 0 0 1 -0.596201,-0.3718 0.49688265,0.49688265 0 0 1 0.371684,-0.59627 0.49688265,0.49688265 0 0 1 0.596344,0.37157 0.49688265,0.49688265 0 0 1 -0.371456,0.59641" /><path
             style="fill:#000000;fill-opacity:1;stroke:none;stroke-width:0.423484;stroke-linecap:round;stroke-linejoin:round;stroke-opacity:1"
             id="path30"
             sodipodi:type="arc"
             sodipodi:cx="97.545914"
             sodipodi:cy="115.34066"
             sodipodi:rx="0.53007329"
             sodipodi:ry="0.53007329"
             sodipodi:start="1.343095"
             sodipodi:end="1.3423282"
             sodipodi:open="true"
             sodipodi:arc-type="arc"
             d="m 97.665572,115.85705 a 0.53007329,0.53007329 0 0 1 -0.636026,-0.39663 0.53007329,0.53007329 0 0 1 0.396512,-0.6361 0.53007329,0.53007329 0 0 1 0.636178,0.39639 0.53007329,0.53007329 0 0 1 -0.396268,0.63625" /><path
             style="fill:#000000;fill-opacity:1;stroke:none;stroke-width:0.476518;stroke-linecap:round;stroke-linejoin:round;stroke-opacity:1"
             id="path31"
             sodipodi:type="arc"
             sodipodi:cx="100.21405"
             sodipodi:cy="116.10278"
             sodipodi:rx="0.59645462"
             sodipodi:ry="0.59645462"
             sodipodi:start="1.343095"
             sodipodi:end="1.3423282"
             sodipodi:open="true"
             sodipodi:arc-type="arc"
             d="m 100.34869,116.68384 a 0.59645462,0.59645462 0 0 1 -0.715673,-0.4463 0.59645462,0.59645462 0 0 1 0.446163,-0.71576 0.59645462,0.59645462 0 0 1 0.71585,0.44603 0.59645462,0.59645462 0 0 1 -0.44589,0.71593" /></g><g
           id="g35"
           inkscape:label="points-top"
           transform="translate(38.319469,-68.482898)"><circle
             style="fill:#000000;fill-opacity:1;stroke:none;stroke-width:0.450001;stroke-linecap:round;stroke-linejoin:round;stroke-opacity:1"
             id="path32"
             cx="98.355629"
             cy="116.71514"
             r="0.56326395" /><path
             style="fill:#000000;fill-opacity:1;stroke:none;stroke-width:0.357193;stroke-linecap:round;stroke-linejoin:round;stroke-opacity:1"
             id="path33"
             sodipodi:type="arc"
             sodipodi:cx="99.892929"
             sodipodi:cy="115.8244"
             sodipodi:rx="0.44709668"
             sodipodi:ry="0.44709668"
             sodipodi:start="1.343095"
             sodipodi:end="1.3423282"
             sodipodi:open="true"
             sodipodi:arc-type="arc"
             d="m 99.993856,116.25996 a 0.44709668,0.44709668 0 0 1 -0.536464,-0.33455 0.44709668,0.44709668 0 0 1 0.334443,-0.53653 0.44709668,0.44709668 0 0 1 0.536595,0.33434 0.44709668,0.44709668 0 0 1 -0.33424,0.53666" /><path
             style="fill:#000000;fill-opacity:1;stroke:none;stroke-width:0.343935;stroke-linecap:round;stroke-linejoin:round;stroke-opacity:1"
             id="path34"
             sodipodi:type="arc"
             sodipodi:cx="98.19313"
             sodipodi:cy="114.66026"
             sodipodi:rx="0.43050137"
             sodipodi:ry="0.43050137"
             sodipodi:start="1.343095"
             sodipodi:end="1.3423282"
             sodipodi:open="true"
             sodipodi:arc-type="arc"
             d="m 98.290311,115.07965 a 0.43050137,0.43050137 0 0 1 -0.516551,-0.32213 0.43050137,0.43050137 0 0 1 0.322029,-0.51661 0.43050137,0.43050137 0 0 1 0.516675,0.32193 0.43050137,0.43050137 0 0 1 -0.321831,0.51674" /></g><path
           style="display:inline;fill:none;fill-opacity:1;stroke:#000000;stroke-width:0.5;stroke-linecap:round;stroke-linejoin:round;stroke-dasharray:none;stroke-opacity:1"
           d="m 128.98583,37.677714 c 0,0 5.71299,1.497643 6.66435,4.839505"
           id="path40"
           sodipodi:nodetypes="cc"
           inkscape:label="middle-line-top"
           transform="translate(-1.0945128e-6)" /><path
           style="display:inline;fill:none;fill-opacity:1;stroke:#000000;stroke-width:0.5;stroke-linecap:round;stroke-linejoin:round;stroke-dasharray:none;stroke-opacity:1"
           d="m 107.60391,103.34571 c 0,0 -7.05529,0.1809 -9.053871,-9.954739"
           id="path41"
           sodipodi:nodetypes="cc"
           inkscape:label="middle-line-btm"
           transform="translate(-1.0945128e-6)" /></g></g></g><g
     inkscape:label="Layer 1"
     inkscape:groupmode="layer"
     id="layer1"
     style="display:inline" /><g
     id="g3"
     style="opacity:1"
     transform="matrix(0.99208066,0,0,0.99208066,0.49495681,0.49495575)"
     inkscape:label="cornice"><path
       style="baseline-shift:baseline;display:inline;overflow:visible;vector-effect:none;fill:none;fill-opacity:0;stroke-linecap:round;stroke-linejoin:round;enable-background:accumulate;stop-color:#000000;stop-opacity:1"
       d="M 75.856467,120.13905 A 59.167866,59.167068 0 0 1 4.8619292,75.866565 59.167866,59.167068 0 0 1 49.121404,4.8644989 59.167866,59.167068 0 0 1 120.13291,49.109766 59.167866,59.167068 0 0 1 75.900662,120.1288"
       id="path1" /><path
       style="baseline-shift:baseline;display:inline;overflow:visible;vector-effect:none;fill:#d33559;stroke:#000000;stroke-linecap:round;stroke-linejoin:round;stroke-opacity:1;enable-background:accumulate;stop-color:#000000;stop-opacity:1"
       d="M 60.912109,0.02148438 C 56.764156,0.12894571 52.566142,0.6527415 48.369141,1.6269531 14.793128,9.4206462 -6.1623761,43.04007 1.625,76.617187 9.4123761,110.1943 43.028424,131.15777 76.607422,123.37695 a 3.3229849,3.3229849 0 0 0 0.01172,-0.0176 3.3229849,3.3229849 0 0 0 0.0332,0.006 C 110.22537,115.55867 131.16939,81.931551 123.36914,48.357422 116.54392,18.980059 89.947784,-0.73074496 60.912109,0.02148438 Z M 61.101562,6.6582031 C 87.081012,5.9650202 110.7824,23.544866 116.89648,49.861328 123.88401,79.937285 105.22352,109.89937 75.148437,116.89258 a 3.3229849,3.3229849 0 0 0 -0.01563,0.0254 3.3229849,3.3229849 0 0 0 -0.02734,-0.0156 C 45.02503,123.87249 15.075599,105.19387 8.0996094,75.115234 1.1236194,45.036601 19.795282,15.083239 49.873047,8.1015625 53.632767,7.2288529 57.390213,6.7572293 61.101562,6.6582031 Z"
       id="path3" /></g></svg>
