<?xml version="1.0" encoding="UTF-8"?>
<svg id="Livello_1" xmlns="http://www.w3.org/2000/svg" xmlns:xlink="http://www.w3.org/1999/xlink" version="1.1" viewBox="0 0 336.65 336.65">
  <!-- Generator: Adobe Illustrator 29.0.0, SVG Export Plug-In . SVG Version: 2.1.0 Build 186)  -->
  <defs>
    <style>
      .st0 {
        fill: none;
      }

      .st1 {
        fill: #d422ff;
      }

      .st2 {
        fill: #ffcd40;
        opacity: .85;
      }

      .st3 {
        clip-path: url(#clippath-1);
      }

      .st4 {
        fill: #f9be2d;
      }

      .st5 {
        fill: #cfefff;
      }

      .st6 {
        fill: #fc3284;
      }

      .st7 {
        clip-path: url(#clippath);
      }
    </style>
    <clipPath id="clippath">
      <path class="st0" d="M296.44,77.22s-62.79-55.4-141.02-34.19c-78.23,21.21-105.87,101.13-105.87,101.13,0,0,69.97,53.45,142.46,33.8,72.49-19.66,104.44-100.75,104.44-100.75Z"/>
    </clipPath>
    <clipPath id="clippath-1">
      <path class="st0" d="M296.86,77.52s-62.79-55.4-141.02-34.19c-78.23,21.21-105.87,101.13-105.87,101.13,0,0,69.97,53.45,142.46,33.8,72.49-19.66,104.44-100.75,104.44-100.75Z"/>
    </clipPath>
  </defs>
  <circle class="st5" cx="168.74" cy="168.17" r="166.45"/>
  <g class="st7">
    <path class="st6" d="M296.44,77.22s-62.79-55.4-141.02-34.19c-78.23,21.21-105.87,101.13-105.87,101.13,0,0,69.97,53.45,142.46,33.8,72.49-19.66,104.44-100.75,104.44-100.75Z"/>
  </g>
  <circle class="st2" cx="175.52" cy="115.1" r="33.11"/>
  <g class="st3">
    <path class="st6" d="M296.86,77.52s-62.79-55.4-141.02-34.19c-78.23,21.21-105.87,101.13-105.87,101.13,0,0,69.97,53.45,142.46,33.8,72.49-19.66,104.44-100.75,104.44-100.75Z"/>
  </g>
  <path class="st1" d="M258.52,291.33l-84.63,15.15-62.45,11.19,7.52-39.38,18.49-96.94-4.05-1.8c-18.3-12.53-36.1-49.95-31.99-72.08,7.03-37.82,40.69-67.04,79.16-67.04,18.77,0,35.82,7.44,48.35,19.54,13.16,12.66,21.32,30.46,21.32,50.15,0,4.07-.35,8.06-1.03,11.94-3.14,18.29-13.45,34.13-27.9,44.54l4.08,13.7,6.39,21.45,26.73,89.59Z"/>
  <circle class="st4" cx="175.66" cy="109.28" r="33.11"/>
  <g>
    <path class="st4" d="M296.86,77.52c-9.37,22.26-21.6,41.34-36.59,57.36-3.76-6.24-7.46-10.43-11.06-12.83-18.09-12.08-34.17,20.51-47.33,64-2.51,8.3-4.93,17.01-7.23,25.88-8.63,33.37-15.67,69.07-20.77,94.54l-62.45,11.19,16.76-39.38c7.07-2.87,14.93-8.78,22.17-20.28,3.96-6.29,8.04-21.08,12.91-39.95,1.76-6.76,3.61-14.04,5.59-21.65,13.51-51.71,33.28-118.31,69.29-136.45,18.12-9.12,31.09-5.96,58.7,17.56Z"/>
    <polygon class="st4" points="129.75 221.67 233.08 206.13 225.51 180.26 133.44 202.8 129.75 221.67"/>
  </g>
  <polygon class="st4" points="142.17 142.17 102.05 197.76 39.7 179.87 133.47 132.51 142.17 142.17"/>
  <polygon class="st4" points="128.09 119.44 9.48 108.43 54.8 62.28 128.14 104.31 128.09 119.44"/>
</svg>